<?xml version="1.0" standalone="no"?>
<!DOCTYPE svg PUBLIC "-//W3C//DTD SVG 1.1//EN" "http://www.w3.org/Graphics/SVG/1.1/DTD/svg11.dtd" >
<svg xmlns="http://www.w3.org/2000/svg">
<metadata></metadata>
<defs>
<font id="titillium_webbold" horiz-adv-x="1146" >
<font-face units-per-em="2048" ascent="1638" descent="-410" />
<missing-glyph horiz-adv-x="450" />
<glyph horiz-adv-x="2048" />
<glyph horiz-adv-x="2048" />
<glyph unicode="&#xd;" horiz-adv-x="681" />
<glyph unicode=" "  horiz-adv-x="450" />
<glyph unicode="&#x09;" horiz-adv-x="450" />
<glyph unicode="&#xa0;" horiz-adv-x="450" />
<glyph unicode="!" horiz-adv-x="573" d="M139 0v330h295v-330h-295zM139 1393h297l-28 -881h-242z" />
<glyph unicode="&#x22;" horiz-adv-x="841" d="M113 1393h264l-12 -492h-242zM467 1393h264l-14 -492h-242z" />
<glyph unicode="#" d="M33 305v230h196v258h-196v229h196v330h238v-330h213v330h238v-330h196v-229h-196v-258h196v-230h-196v-305h-238v305h-213v-305h-238v305h-196zM467 535h213v258h-213v-258z" />
<glyph unicode="$" d="M106 975q0 203 123 302t338 99h27l37 283h151l-37 -295q127 -12 234 -33l35 -8l-23 -217q-150 16 -276 24l-41 -329q213 -68 289.5 -148.5t76.5 -244.5q0 -213 -129 -323t-338 -110h-2l-30 -241q-152 6 -152 14l29 238q-152 18 -254 43l-41 8l27 213q162 -23 299 -31 l45 356q-211 63 -299.5 153.5t-88.5 246.5zM379 993q0 -49 30.5 -79.5t118.5 -63.5l35 285q-184 -9 -184 -142zM602 217q166 18 166 172q0 49 -27.5 81t-99.5 60z" />
<glyph unicode="%" d="M29 1078q0 298 245.5 298t245.5 -298t-245.5 -298t-245.5 298zM229 1079.5q0 -73.5 9.5 -104.5t36 -31t35.5 31t9 104.5t-9 103t-35.5 29.5t-36 -29.5t-9.5 -103zM256 -16l481 1448l150 -54l-481 -1444zM627 273q0 298 245.5 298t245.5 -298t-245.5 -298t-245.5 298z M827 274.5q0 -73.5 9.5 -104.5t36 -31t36 31t9.5 104.5t-9.5 103.5t-36 30t-36 -30t-9.5 -103.5z" />
<glyph unicode="&#x26;" horiz-adv-x="1435" d="M72 401q0 166 69.5 261.5t220.5 154.5q-84 102 -109.5 166t-25.5 166q0 143 115 226t310.5 83t304 -85t108.5 -232.5t-61.5 -231.5t-219.5 -194l201 -201q12 31 24.5 119t14.5 143l266 -6q-31 -238 -104 -416l229 -200l-155 -179l-218 179q-72 -78 -183 -128.5 t-236 -50.5q-299 0 -425 107.5t-126 318.5zM350 424q0 -203 238 -203q82 0 159.5 22.5t108.5 59.5l-354 354q-152 -74 -152 -233zM506 1087q0 -82 92 -180l35 -37q84 61 118.5 109.5t34.5 116.5q0 129 -140 128.5t-140 -137.5z" />
<glyph unicode="'" horiz-adv-x="489" d="M115 1393h264l-14 -492h-242z" />
<glyph unicode="(" horiz-adv-x="630" d="M78 616.5q0 137.5 24.5 282.5t59.5 254q74 229 129 336l24 47h260q-70 -178 -132 -458.5t-62 -461t49 -398.5t98 -345l47 -129h-260q-29 45 -75.5 151.5t-78.5 203t-57.5 238.5t-25.5 279.5z" />
<glyph unicode=")" horiz-adv-x="630" d="M55 -256q70 158 132.5 425t62.5 447.5t-48 410.5t-98 370l-49 139h260q29 -51 76 -167t79 -218t57.5 -249.5t25.5 -285t-24.5 -277.5t-59.5 -243q-74 -215 -129 -309l-25 -43h-260z" />
<glyph unicode="*" horiz-adv-x="870" d="M82 938l215 160l-209 149l94 129l207 -149l80 248l154 -52l-78 -249h252v-152h-252l78 -246l-150 -45l-84 248l-211 -162z" />
<glyph unicode="+" d="M102 391v246h347v344h245v-344h350v-246h-350v-348h-245v348h-347z" />
<glyph unicode="," horiz-adv-x="538" d="M41 -252l102 533h303l-184 -533h-221z" />
<glyph unicode="-" horiz-adv-x="835" d="M115 420v250h606v-250h-606z" />
<glyph unicode="." horiz-adv-x="524" d="M115 0v340h295v-340h-295z" />
<glyph unicode="/" horiz-adv-x="954" d="M63 16l590 1454l242 -86l-590 -1454z" />
<glyph unicode="0" d="M49 668.5q0 371.5 132 539.5t392.5 168t392.5 -168t132 -539.5t-131 -532.5t-393.5 -161t-393.5 161t-131 532.5zM340 674q0 -252 55.5 -352.5t180 -100.5t178 100.5t53.5 353.5t-53.5 354t-179 101t-180 -102t-54.5 -354z" />
<glyph unicode="1" d="M152 1055l446 297h258v-1352h-283v1032l-292 -188z" />
<glyph unicode="2" d="M133 0v240l289 292q154 158 214 242t60 179.5t-50 134t-142 38.5q-137 0 -299 -24l-49 -6l-15 219q201 61 416 61q430 0 430 -387q0 -152 -65.5 -262.5t-237.5 -267.5l-235 -213h561v-246h-877z" />
<glyph unicode="3" d="M117 45l14 215q229 -39 385 -39q211 0 211 180q0 76 -54.5 121t-142.5 45h-272v234h272q68 0 120 57t52 127q0 145 -202 145q-141 0 -301 -28l-54 -8l-18 209q188 74 420.5 73.5t339 -89.5t106.5 -285.5t-157 -301.5q98 -53 140 -110.5t42 -181.5q0 -219 -109.5 -326 t-351.5 -107q-178 0 -375 54z" />
<glyph unicode="4" d="M82 223v215l334 914h311l-362 -883h290v379h283v-379h129v-246h-129v-223h-283v223h-573z" />
<glyph unicode="5" d="M102 51l31 209q248 -39 414 -39q100 0 153.5 53.5t53.5 152.5t-45 144t-127 45q-137 0 -242 -26l-31 -8l-168 39l37 731h826v-246h-605l-34 -293q127 49 241 49q438 0 438 -407q0 -229 -120.5 -354.5t-341.5 -125.5q-94 0 -214 18.5t-192 39.5z" />
<glyph unicode="6" d="M72 690q0 352 145 519t418 167q160 0 342 -45l63 -14l-24 -217q-209 31 -363 30q-291 0 -291 -315l44 12q135 39 215 39q231 0 347.5 -106.5t116.5 -330.5t-131 -339t-379.5 -115t-375.5 181.5t-127 533.5zM360 575q0 -354 230 -354q98 0 151.5 54.5t53.5 152.5 q0 193 -199 193q-96 0 -201 -35z" />
<glyph unicode="7" d="M141 1100v252h865v-320l-482 -1057l-262 74l461 985v66h-582z" />
<glyph unicode="8" d="M57 344q0 131 40 204t130 148q-86 70 -116.5 136.5t-30.5 175.5q0 174 133 271t356.5 97t360.5 -98t137 -272q0 -119 -28.5 -178.5t-118.5 -131.5q90 -76 128.5 -143.5t38.5 -185.5q0 -201 -143 -296.5t-375 -95.5q-512 0 -512 369zM360 410q0 -180 212 -180.5t212 180.5 q0 106 -120 153h-181q-123 -47 -123 -153zM383 956q0 -84 100 -153h181q100 70 100 160q-1 159 -191 159q-92 0 -141 -41t-49 -125z" />
<glyph unicode="9" d="M57 923q0 214 133.5 333.5t378 119.5t373.5 -181t129 -538.5t-143.5 -519.5t-419.5 -162q-160 0 -342 45l-64 15l25 217q209 -31 381 -31q272 0 272 332l-43 -14q-141 -47 -215 -47q-223 0 -344 108.5t-121 322.5zM348 924q0 -187 199 -187q94 0 203 37l32 10 q0 346 -229 346q-98 0 -151.5 -54t-53.5 -152z" />
<glyph unicode=":" horiz-adv-x="524" d="M115 0v340h295v-340h-295zM115 592v340h295v-340h-295z" />
<glyph unicode=";" horiz-adv-x="571" d="M55 -252l103 533h303l-185 -533h-221zM141 592v340h295v-340h-295z" />
<glyph unicode="&#x3c;" d="M135 401v226l832 374v-278l-535 -203l535 -221v-279z" />
<glyph unicode="=" d="M119 178v248h909v-248h-909zM119 604v248h909v-248h-909z" />
<glyph unicode="&#x3e;" d="M180 20v279l535 221l-535 203v278l832 -374v-226z" />
<glyph unicode="?" horiz-adv-x="894" d="M61 1346q176 72 373 71.5t296 -80.5t99 -239.5t-31.5 -232t-134 -149.5t-129 -118t-26.5 -90v-64h-219q-63 70 -64 187q0 74 130 178t160 144t30 98q0 121 -174 120q-123 0 -252 -24l-43 -8zM244 0v330h295v-330h-295z" />
<glyph unicode="@" horiz-adv-x="1992" d="M78 535q0 473 256 715.5t700.5 242.5t671.5 -222t227 -646v-17q0 -315 -99 -461.5t-296 -146.5q-145 0 -238 74q-20 16 -34 41q-164 -115 -303 -115q-193 0 -288 120t-95 387t89 392t302 125q72 0 155 -37l31 -14v26h275v-366q0 -283 11 -324t24.5 -57t27.5 -19.5 t39 -3.5q66 0 95.5 80t29.5 299v19q0 328 -150.5 476t-479.5 148t-503 -188.5t-174 -547.5t156 -530t522 -171l293 18l10 -240q-184 -20 -303 -20q-236 0 -405.5 47t-296.5 156q-250 219 -250 760zM858 514q0 -272 127 -272q78 0 184 51q-12 74 -12 217v252q-86 20 -125 20 q-106 0 -140 -59t-34 -209z" />
<glyph unicode="A" horiz-adv-x="1232" d="M35 0l313 1393h537l313 -1393h-283l-55 252h-487l-56 -252h-282zM426 498h381l-141 661h-99z" />
<glyph unicode="B" horiz-adv-x="1247" d="M152 0v1393h546q217 0 326 -87t109 -282q0 -117 -35 -185.5t-119 -121.5q92 -39 136 -113t44 -205q0 -203 -118.5 -301t-333.5 -98h-555zM434 242h258q92 0 136 36.5t44 135.5q0 168 -180 168h-258v-340zM434 819h252q160 0 160 166t-162 166h-250v-332z" />
<glyph unicode="C" horiz-adv-x="1112" d="M96 696q0 403 114 562t419 159q176 0 407 -55l-8 -225q-200 31 -333 31h-4q-134 0 -191.5 -36t-85 -136.5t-27.5 -342t56.5 -335t225.5 -93.5t359 29l6 -231q-217 -47 -391 -47q-2 0 -4 -1q-171 0 -275 43t-163.5 137.5t-82 221.5t-22.5 319z" />
<glyph unicode="D" horiz-adv-x="1306" d="M152 0v1393h469q180 0 296.5 -38t181 -125t89 -205t24.5 -306.5t-22.5 -312t-85 -221t-181 -141.5t-302.5 -44h-469zM434 246h187q154 0 223 78q60 63 74 229q4 66 4 181.5t-8.5 185t-39 127t-91 79t-162.5 21.5h-187v-901z" />
<glyph unicode="E" horiz-adv-x="1134" d="M152 0v1393h901v-246h-619v-326h496v-241h-496v-334h619v-246h-901z" />
<glyph unicode="F" horiz-adv-x="1087" d="M152 0v1393h888v-246h-606v-410h496v-245h-496v-492h-282z" />
<glyph unicode="G" horiz-adv-x="1251" d="M92 702.5q0 378.5 127 546.5t432 168q190 0 412 -43l74 -14l-9 -219q-242 27 -397 27h-5q-157 -1 -220.5 -37.5t-93 -136t-29.5 -340t59.5 -337t245.5 -96.5l170 8v271h-127v245h406v-722q-293 -47 -475 -48q-326 0 -448 174.5t-122 553z" />
<glyph unicode="H" horiz-adv-x="1386" d="M152 0v1393h282v-570h518v570h283v-1393h-283v578h-518v-578h-282z" />
<glyph unicode="I" horiz-adv-x="585" d="M152 0v1393h282v-1393h-282z" />
<glyph unicode="J" horiz-adv-x="618" d="M39 102q82 0 119 31t37 115v1145h280l2 -1157q0 -223 -99 -301t-339 -78v245z" />
<glyph unicode="K" horiz-adv-x="1214" d="M152 0v1393h282v-613l189 21l229 592h322l-304 -699l312 -694h-326l-233 555l-189 -20v-535h-282z" />
<glyph unicode="L" horiz-adv-x="966" d="M152 0v1393h282v-1143h510v-250h-792z" />
<glyph unicode="M" horiz-adv-x="1757" d="M152 0v1393h481l246 -1016l245 1016h482v-1393h-283v1077h-31l-272 -1016h-283l-272 1016h-31v-1077h-282z" />
<glyph unicode="N" horiz-adv-x="1419" d="M152 0v1393h477l336 -1147h20v1147h283v-1393h-465l-348 1147h-21v-1147h-282z" />
<glyph unicode="O" horiz-adv-x="1335" d="M90 690.5q0 368.5 130 547.5t447.5 179t447.5 -179t130 -547.5t-130 -542t-447.5 -173.5t-447.5 173.5t-130 542zM381 689q0 -253 60.5 -360.5t226.5 -107.5t226 107.5t60 360.5t-61.5 367.5t-225 114.5t-225 -114.5t-61.5 -367.5z" />
<glyph unicode="P" horiz-adv-x="1206" d="M152 0v1393h512q495 0 495 -482q0 -246 -125.5 -375.5t-369.5 -129.5h-230v-406h-282zM434 647h228q210 0 210 260q0 131 -51 187.5t-159 56.5h-228v-504z" />
<glyph unicode="Q" horiz-adv-x="1335" d="M90 689q0 370 130 549t447.5 179t447.5 -179t130 -550q0 -455 -215 -612l170 -275l-258 -120l-184 301q-20 -7 -90 -7q-319 0 -448.5 172t-129.5 542zM381 688q0 -254 60.5 -360.5t226.5 -106.5t226 106.5t60 360.5t-61.5 368.5t-225 114.5t-225 -114.5t-61.5 -368.5z " />
<glyph unicode="R" horiz-adv-x="1269" d="M152 0v1393h540q492 0 492 -459q0 -272 -205 -402l199 -532h-310l-161 467h-273v-467h-282zM434 709h262q101 0 150 61t49 161.5t-52 160t-151 59.5h-258v-442z" />
<glyph unicode="S" horiz-adv-x="1114" d="M76 1004q0 209 127 311t348 102q152 0 385 -41l74 -14l-23 -223q-288 32 -407 32q-223 0 -224 -147q0 -66 55.5 -100.5t259 -100t285.5 -148.5t82 -255q0 -219 -133 -332t-348 -113q-160 0 -391 50l-74 14l29 219q274 -37 420 -37q217 0 217 180q0 66 -50.5 103 t-199.5 80q-238 68 -335 161t-97 259z" />
<glyph unicode="T" horiz-adv-x="1077" d="M27 1143v250h1024v-250h-369v-1143h-283v1143h-372z" />
<glyph unicode="U" horiz-adv-x="1339" d="M139 471v922h283v-928q0 -244 248 -244t248 244v928h282v-922q0 -256 -132 -376t-398.5 -120t-398.5 120t-132 376z" />
<glyph unicode="V" horiz-adv-x="1234" d="M33 1393h297l241 -1147h93l241 1147h297l-323 -1393h-523z" />
<glyph unicode="W" horiz-adv-x="1904" d="M39 1393h297l172 -1151h31l249 1151h328l250 -1151h31l172 1151h297l-267 -1393h-428l-219 1059l-219 -1059h-428z" />
<glyph unicode="X" horiz-adv-x="1165" d="M18 0l402 668l-402 725h314l258 -512l264 512h293l-402 -711l402 -682h-313l-259 481l-264 -481h-293z" />
<glyph unicode="Y" horiz-adv-x="1140" d="M0 1393h313l256 -555l256 555h314l-426 -830v-563h-283v563z" />
<glyph unicode="Z" horiz-adv-x="1089" d="M84 0v244l582 866v37h-582v246h922v-246l-582 -864v-37h582v-246h-922z" />
<glyph unicode="[" horiz-adv-x="727" d="M139 -252v1786h516v-246h-235v-1294h235v-246h-516z" />
<glyph unicode="\" horiz-adv-x="1019" d="M66 1360l233 106l655 -1439l-237 -101z" />
<glyph unicode="]" horiz-adv-x="727" d="M72 -6h235v1294h-235v246h516v-1786h-516v246z" />
<glyph unicode="^" d="M43 641l397 711h234l397 -711h-287l-223 444l-231 -444h-287z" />
<glyph unicode="_" horiz-adv-x="1269" d="M197 -150h876v-233h-876v233z" />
<glyph unicode="`" horiz-adv-x="548" d="M-35 1307l82 235l516 -209l-61 -178z" />
<glyph unicode="a" horiz-adv-x="1046" d="M59 311q0 164 88.5 232.5t270.5 81.5l219 16v64q0 63 -28.5 86.5t-92.5 23.5l-385 -16l-8 190q219 59 417 59q1 0 2 1q196 0 282 -82q87 -82 87 -262v-426q4 -49 16.5 -69t51.5 -28l-8 -207q-104 0 -167 14.5t-126 57.5q-147 -72 -301 -72q-317 0 -318 336zM336 311.5 q0 -112.5 100 -112.5q78 0 170 24l31 8v220l-186 -17q-115 -10 -115 -122.5z" />
<glyph unicode="b" horiz-adv-x="1114" d="M127 4v1430h274v-441q132 56 222 56q215 0 314 -118t99 -421t-114.5 -419t-395.5 -116q-88 0 -321 21zM401 229q94 -8 125 -8q137 0 184.5 66.5t47.5 238.5q0 276 -172 277q-82 0 -156 -21l-29 -6v-547z" />
<glyph unicode="c" horiz-adv-x="913" d="M78 514q0 283 102.5 409t329.5 126q106 0 272 -33l56 -12l-9 -218q-162 16 -239 17q-141 0 -187.5 -60.5t-46.5 -228.5t46.5 -230.5t189.5 -62.5l237 17l9 -220q-219 -43 -334 -43q-227 0 -326.5 128t-99.5 411z" />
<glyph unicode="d" horiz-adv-x="1124" d="M78 513q0 280 105.5 408t318.5 128q66 0 182 -21l39 -8v414h274v-1434h-272v43q-143 -68 -248 -68q-223 0 -311 129t-88 409zM356 516q0 -160 37 -227.5t122 -67.5t179 25l29 6v539q-113 20 -201 20q-166 0 -166 -295z" />
<glyph unicode="e" horiz-adv-x="1044" d="M76 498q0 551 452 551q446 0 447 -463l-21 -191h-602q2 -94 50.5 -136t138.5 -42q190 0 340 12l57 7l4 -203q-236 -57 -426 -58q-231 0 -335.5 123t-104.5 400zM350 604h355q0 123 -39 171t-136.5 48t-137.5 -50t-42 -169z" />
<glyph unicode="f" horiz-adv-x="731" d="M66 791v233h110v45q0 221 65.5 305t233.5 84q74 0 191 -20l43 -6l-4 -224q-90 4 -151.5 4t-82 -32.5t-20.5 -112.5v-43h247v-233h-247v-791h-275v791h-110z" />
<glyph unicode="g" horiz-adv-x="1093" d="M76 -186q0 129 147 243q-76 51 -76 156q0 41 62 135l18 29q-139 100 -139 295.5t118 283.5t312 88q88 0 174 -20l33 -6l330 10v-219l-154 12q45 -70 45 -139q0 -205 -104.5 -282.5t-327.5 -77.5q-47 0 -84 8q-20 -53 -20 -87t34.5 -46.5t163.5 -14.5q258 -2 352.5 -68.5 t94.5 -241.5t-135.5 -259t-365.5 -84t-354 61.5t-124 223.5zM346 -158q0 -88 216 -88t216 103q0 55 -36.5 70.5t-155.5 17.5l-185 14q-55 -56 -55 -117zM362 680.5q0 -150.5 157 -150.5t157 150.5t-157 150.5t-157 -150.5z" />
<glyph unicode="h" horiz-adv-x="1132" d="M127 0v1434h274v-459q141 74 254 74q205 0 283 -121t78 -373v-555h-275v549q0 129 -30.5 191.5t-122.5 62.5q-80 0 -160 -25l-27 -8v-770h-274z" />
<glyph unicode="i" horiz-adv-x="528" d="M127 0v1024h274v-1024h-274zM127 1155v279h274v-279h-274z" />
<glyph unicode="j" horiz-adv-x="530" d="M-70 -268q92 61 129 96t53.5 83t16.5 138v975h274v-977q0 -209 -72.5 -308t-291.5 -210zM129 1155v279h274v-279h-274z" />
<glyph unicode="k" horiz-adv-x="1054" d="M127 0v1434h274v-816l105 19l203 387h307l-266 -485l280 -539h-309l-207 399l-113 -18v-381h-274z" />
<glyph unicode="l" horiz-adv-x="552" d="M139 0v1434h275v-1434h-275z" />
<glyph unicode="m" horiz-adv-x="1718" d="M127 0v1024h272v-57q141 82 242 82q166 0 256 -97q188 96 344 97q203 0 282 -118t79 -376v-555h-275v547q0 131 -28.5 193.5t-114.5 62.5q-66 0 -160 -29l-31 -10q8 -154 8 -234v-530h-274v526q0 152 -26.5 214.5t-116.5 62.5q-80 0 -158 -29l-25 -8v-766h-274z" />
<glyph unicode="n" horiz-adv-x="1132" d="M127 0v1024h272v-57q139 82 256 82q205 0 283 -121t78 -373v-555h-275v547q0 131 -30.5 193.5t-122.5 62.5q-84 0 -162 -29l-25 -8v-766h-274z" />
<glyph unicode="o" horiz-adv-x="1089" d="M74 514q0 254 108.5 394.5t362.5 140.5t362.5 -140.5t108.5 -394.5q0 -539 -471 -539t-471 539zM352 514q0 -158 42 -231.5t150.5 -73.5t150.5 73.5t42 231.5t-42 229.5t-150.5 71.5t-150.5 -71.5t-42 -229.5z" />
<glyph unicode="p" horiz-adv-x="1114" d="M127 -430v1454h272v-55q133 80 234 80q207 0 305 -124t98 -421t-108.5 -413t-356.5 -116q-68 0 -145 13l-25 4v-422h-274zM401 225q92 -12 150 -12q119 0 163 69.5t44 237.5q0 283 -178 283q-76 0 -154 -31l-25 -10v-537z" />
<glyph unicode="q" horiz-adv-x="1112" d="M78 515q0 304 113.5 419t394.5 115q125 0 325 -21l74 -6v-1452h-274v461q-132 -56 -222 -56q-215 0 -313 118t-98 422zM352 498q0 -276 174 -277q82 0 158 21l27 6v555q-76 8 -125 8q-137 0 -185.5 -70.5t-48.5 -242.5z" />
<glyph unicode="r" horiz-adv-x="761" d="M127 0v1024h272v-109q172 102 328 134v-277q-166 -35 -285 -72l-41 -14v-686h-274z" />
<glyph unicode="s" horiz-adv-x="966" d="M74 718q0 163 110.5 246t284.5 83q121 0 330 -39l67 -13l-4 -227q-254 33 -355 33t-131 -18.5t-30 -58.5t40 -55.5t205 -45t234.5 -97t69.5 -219.5q0 -332 -412 -332q-135 0 -327 37l-66 13l8 229q254 -33 353.5 -33t135.5 19.5t36 58.5t-38 57.5t-197 45t-236.5 90 t-77.5 226.5z" />
<glyph unicode="t" horiz-adv-x="745" d="M47 791v233h121v285h274v-285h252v-233h-252v-420q0 -61 3.5 -87t22.5 -44.5t60 -18.5l156 4l12 -219q-137 -31 -209 -31q-184 0 -251.5 83t-67.5 307v426h-121z" />
<glyph unicode="u" horiz-adv-x="1132" d="M117 487v537h274v-541q0 -152 24.5 -207t119.5 -55q90 0 170 29l26 8v766h275v-1024h-273v57q-147 -82 -256 -82q-213 0 -286.5 118t-73.5 394z" />
<glyph unicode="v" horiz-adv-x="1019" d="M31 1024h286l164 -791h58l172 791h278l-246 -1024h-467z" />
<glyph unicode="w" horiz-adv-x="1581" d="M49 1024h270l125 -791h50l155 771h283l155 -771h50l125 791h270l-195 -1024h-430l-116 627l-117 -627h-430z" />
<glyph unicode="x" horiz-adv-x="970" d="M29 0l280 514l-280 510h293l163 -317l166 317h293l-291 -502l291 -522h-293l-166 313l-163 -313h-293z" />
<glyph unicode="y" horiz-adv-x="1024" d="M33 1024h270l186 -791h48l186 791h270l-360 -1454h-268l112 430h-192z" />
<glyph unicode="z" horiz-adv-x="929" d="M84 0v246l430 532h-430v246h760v-246l-430 -532h430v-246h-760z" />
<glyph unicode="{" horiz-adv-x="739" d="M33 535v213q229 53 229 192l-14 260q0 195 93 272.5t325 86.5v-234q-88 -8 -120 -42.5t-32 -102.5l14 -262q0 -129 -42 -184.5t-187 -90.5q143 -35 187 -97.5t44 -193.5l-14 -239q0 -70 29.5 -109t116.5 -45v-233q-227 8 -320.5 88t-93.5 264l14 248q0 150 -229 209z" />
<glyph unicode="|" horiz-adv-x="548" d="M137 -430v1864h275v-1864h-275z" />
<glyph unicode="}" horiz-adv-x="739" d="M74 1325v234q231 -8 324.5 -86t93.5 -273l-15 -260q0 -139 230 -192v-213q-229 -59 -230 -209l15 -248q0 -184 -93.5 -264t-320.5 -88v233q86 6 115.5 45t29.5 109l-14 239q0 131 44 193.5t187 97.5q-145 35 -187 90t-42 185l14 262q0 68 -31.5 102.5t-119.5 42.5z" />
<glyph unicode="~" d="M125 578q129 106 252 106q57 0 212.5 -45t196.5 -45q76 0 181 57l34 21l17 -219q-39 -39 -107.5 -72t-126 -33t-219.5 45t-200.5 45t-95 -20.5t-89.5 -40.5l-35 -19z" />
<glyph unicode="&#xa1;" horiz-adv-x="540" d="M121 -369l29 881h241l27 -881h-297zM123 694v330h295v-330h-295z" />
<glyph unicode="&#xa2;" d="M180 509q0 423 373 454v206h225v-215l162 -26l-8 -205q-162 6 -265.5 6t-155.5 -50t-52 -167t53 -168t182 -51l238 8l8 -205q-80 -20 -162 -26v-224h-225v213q-373 27 -373 450z" />
<glyph unicode="&#xa3;" d="M154 0v233h151v420h-131v234h131v121q0 213 82 289.5t258 76.5q137 0 268 -37l45 -12l-8 -213q-139 16 -268 16q-106 0 -107 -133v-108h314v-234h-314v-420h254l142 33l43 -229l-166 -37h-694z" />
<glyph unicode="&#xa4;" d="M61 193l148 147q-39 84 -39 175t39 175l-148 150l189 188l147 -149q82 41 175.5 41t175.5 -41l149 149l188 -188l-149 -150q41 -82 41 -175t-41 -175l149 -147l-188 -189l-149 150q-82 -41 -174.5 -41t-174.5 41l-149 -150zM397 516q0 -72 52.5 -124t124 -52t124 52 t52.5 124t-52.5 124t-124 52t-124 -52t-52.5 -124z" />
<glyph unicode="&#xa5;" d="M10 1352h314l251 -432l250 432h314l-293 -527h182v-229h-309v-92h309v-230h-309v-274h-283v274h-317v230h317v92h-317v229h188z" />
<glyph unicode="&#xa6;" horiz-adv-x="557" d="M141 348h275v-778h-275v778zM141 672v762h275v-762h-275z" />
<glyph unicode="&#xa7;" horiz-adv-x="1058" d="M76 436q0 72 41 153t90 122q-90 66 -90 221q0 375 444 375q131 0 303 -37l58 -13l-13 -221q-231 33 -339.5 33t-147.5 -28.5t-39 -104.5q0 -45 55.5 -68.5t231.5 -66.5t239.5 -102.5t63.5 -202t-103 -287.5q41 -39 59.5 -84t18.5 -139q0 -199 -105.5 -287t-338.5 -88 q-115 0 -318 37l-63 10l27 221q221 -31 330.5 -31t157.5 28t48 86t-51 83t-235.5 71t-254 110.5t-69.5 209.5zM352 496.5q0 -68.5 23.5 -91t104.5 -45t177 -55.5q37 47 37 150q0 51 -32.5 76.5t-91 41t-109.5 27.5t-74 18q-35 -53 -35 -121.5z" />
<glyph unicode="&#xa8;" horiz-adv-x="548" d="M-61 1221v270h262v-270h-262zM381 1221v270h262v-270h-262z" />
<glyph unicode="&#xa9;" horiz-adv-x="1316" d="M94 892q0 249 160 413.5t408.5 164.5t404.5 -168.5t156 -416.5t-156 -413t-403.5 -165t-408.5 168t-161 417zM221 888.5q0 -190.5 125 -324.5t312.5 -134t312.5 133t125 323.5t-126 326t-311.5 135.5t-311.5 -134.5t-126 -325zM414 889.5q0 191.5 62.5 263.5t207.5 72 q80 0 143 -25l21 -6l-14 -176q-72 12 -125.5 12t-68.5 -28.5t-15 -102.5q0 -154 71 -154l138 11l14 -168q-57 -37 -185 -37t-188.5 73.5t-60.5 265z" />
<glyph unicode="&#xaa;" horiz-adv-x="851" d="M86 868q0 195 260 207l137 6v45q0 31 -90 31l-268 -14l-6 153q143 53 294.5 53.5t228.5 -50t77 -185.5v-289q16 -12 37 -16l-4 -168q-139 0 -187.5 15.5t-72.5 52.5q-86 -66 -188.5 -66t-160 60.5t-57.5 164.5zM322 877q0 -54 63 -54q37 0 98 33v82l-96 -6 q-66 -6 -65 -55z" />
<glyph unicode="&#xab;" horiz-adv-x="1230" d="M82 397v197l457 336v-277l-224 -153l224 -176v-277zM662 397v197l456 336v-277l-223 -153l223 -176v-277z" />
<glyph unicode="&#xac;" d="M117 487v246h893v-520h-246v274h-647z" />
<glyph unicode="&#xad;" horiz-adv-x="835" d="M115 420v250h606v-250h-606z" />
<glyph unicode="&#xae;" horiz-adv-x="1316" d="M94 891q0 250 160 414.5t407.5 164.5t404.5 -168.5t157 -416.5t-155 -413t-403.5 -165t-409.5 167t-161 417zM221 888.5q0 -188.5 127 -323.5t312.5 -135t310.5 134t125 323.5t-126 325t-311.5 135.5t-311.5 -135.5t-126 -324zM412 565v645h278q106 0 170 -52t64 -147.5 t-16.5 -139.5t-61.5 -80l84 -226h-205l-57 191h-60v-191h-196zM606 901h58q70 0 69.5 81t-71.5 81h-56v-162z" />
<glyph unicode="&#xaf;" horiz-adv-x="548" d="M-10 1223v204h588v-204h-588z" />
<glyph unicode="&#xb0;" d="M266 1110q0 137 85 222t222.5 85t222.5 -85t85 -222t-85 -221t-222.5 -84t-222.5 84t-85 221zM420 1110q0 -70 42 -113t111.5 -43t113.5 43t44 113t-44 114t-113.5 44t-111.5 -44t-42 -114z" />
<glyph unicode="&#xb1;" d="M102 39v246h942v-246h-942zM102 553v246h347v221h245v-221h350v-246h-350v-205h-245v205h-347z" />
<glyph unicode="&#xb2;" horiz-adv-x="573" d="M43 979v184l150 121q94 76 94 117q0 31 -76 31l-156 -13l-8 203q150 18 258.5 18t159.5 -47t51 -136t-26.5 -135t-88.5 -91l-77 -57h192v-195h-473z" />
<glyph unicode="&#xb3;" horiz-adv-x="573" d="M41 973l12 190q125 -12 188.5 -12t63.5 33q0 29 -53 28h-135v174h131q41 0 41 30t-56 30l-172 -10l-12 186q139 18 221 18q248 0 248 -182q0 -109 -59 -143q72 -31 71 -144q0 -215 -241 -215z" />
<glyph unicode="&#xb4;" horiz-adv-x="548" d="M10 1333l516 209l82 -235l-536 -152z" />
<glyph unicode="&#xb5;" d="M129 -430v1454h274v-592q2 -119 29 -165t115 -46q90 0 170 29l26 8v766h275v-1024h-273v57q-147 -82 -256 -82q-47 0 -86 7v-412h-274z" />
<glyph unicode="&#xb6;" horiz-adv-x="1226" d="M57 987q0 178 106.5 292t278.5 114h678v-234h-73v-1159h-234v1159h-127v-1159h-233v586h-15q-172 0 -276.5 111.5t-104.5 289.5z" />
<glyph unicode="&#xb7;" horiz-adv-x="524" d="M115 342v340h295v-340h-295z" />
<glyph unicode="&#xb8;" horiz-adv-x="540" d="M61 -471l9 160q63 -2 98 -2q78 0 78 53q0 45 -78 45h-49v217h108v-78q131 -2 191.5 -39t60.5 -149.5t-59.5 -171t-167.5 -58.5q-90 0 -162 17z" />
<glyph unicode="&#xb9;" horiz-adv-x="573" d="M20 1464l218 154h196v-639h-217v399l-96 -65z" />
<glyph unicode="&#xba;" horiz-adv-x="860" d="M82 996.5q0 353.5 350 353.5q346 0 346 -353.5t-346 -353.5q-350 0 -350 353.5zM328 999.5q0 -73.5 22.5 -107.5t82 -34t78.5 33t19 108.5t-19 106.5t-78.5 31t-82 -32t-22.5 -105.5z" />
<glyph unicode="&#xbb;" horiz-adv-x="1234" d="M113 47v277l223 176l-223 153v277l456 -336v-197zM692 47v277l223 176l-223 153v277l457 -336v-197z" />
<glyph unicode="&#xbc;" horiz-adv-x="1122" d="M37 1464l217 154h197v-639h-218v399l-96 -65zM59 59l805 1295l109 -72l-805 -1296zM567 47l80 387h242l-107 -373h56l28 185h187v-185h22v-194h-22v-72h-215v72h-271v180z" />
<glyph unicode="&#xbd;" horiz-adv-x="1110" d="M37 1464l217 154h197v-639h-218v399l-96 -65zM59 59l805 1295l109 -72l-805 -1296zM575 -20l150 120q94 76 94 117q0 31 -76 31l-155 -12l-8 202q150 18 258 18.5t159.5 -47t51.5 -136.5t-27 -135t-88 -91l-78 -57h193v-195h-474v185z" />
<glyph unicode="&#xbe;" horiz-adv-x="1148" d="M74 973l12 190q125 -12 188.5 -12t63.5 33q0 29 -53 28h-135v174h131q41 0 41 30t-56 30l-172 -10l-12 186q139 18 221 18q248 0 248 -182q0 -109 -59 -143q72 -31 71 -144q0 -215 -241 -215zM88 59l805 1295l108 -72l-804 -1296zM596 47l80 387h242l-107 -373h55l29 185 h186v-185h23v-194h-23v-72h-215v72h-270v180z" />
<glyph unicode="&#xbf;" horiz-adv-x="886" d="M59 -73.5q0 159.5 32 232t134.5 149.5t129 118t26.5 90v64h219q63 -70 64 -187q0 -74 -130.5 -178t-160 -144t-29.5 -98q0 -121 174 -120q123 0 252 24l43 8l14 -207q-176 -72 -372.5 -71.5t-296 80.5t-99.5 239.5zM350 694v330h295v-330h-295z" />
<glyph unicode="&#xc0;" horiz-adv-x="1232" d="M35 0l313 1393h537l313 -1393h-283l-55 252h-487l-56 -252h-282zM291 1690l84 245l516 -217l-68 -190zM426 498h381l-141 661h-99z" />
<glyph unicode="&#xc1;" horiz-adv-x="1232" d="M35 0l313 1393h537l313 -1393h-283l-55 252h-487l-56 -252h-282zM332 1718l516 217l84 -245l-533 -162zM426 498h381l-141 661h-99z" />
<glyph unicode="&#xc2;" horiz-adv-x="1232" d="M35 0l313 1393h537l313 -1393h-283l-55 252h-487l-56 -252h-282zM219 1567l275 305h239l275 -305h-291l-101 114l-106 -114h-291zM426 498h381l-141 661h-99z" />
<glyph unicode="&#xc3;" horiz-adv-x="1232" d="M35 0l313 1393h537l313 -1393h-283l-55 252h-487l-56 -252h-282zM207 1757q41 49 105.5 90t125 41t185.5 -47t147 -47q47 0 135 66l31 20l59 -199q-43 -49 -106.5 -89t-116.5 -40t-183 47.5t-157 47.5q-51 0 -137 -66l-29 -20zM426 498h381l-141 661h-99z" />
<glyph unicode="&#xc4;" horiz-adv-x="1232" d="M35 0l313 1393h537l313 -1393h-283l-55 252h-487l-56 -252h-282zM264 1565v270h262v-270h-262zM426 498h381l-141 661h-99zM702 1565v270h263v-270h-263z" />
<glyph unicode="&#xc5;" horiz-adv-x="1232" d="M35 0l305 1356q-31 53 -31 121q0 121 88 189.5t219.5 68.5t219.5 -68.5t88 -189.5q0 -63 -31 -121l305 -1356h-283l-55 252h-487l-56 -252h-282zM426 498h381l-141 661h-99zM496 1478q0 -38 28.5 -60.5t79.5 -24.5h12q55 0 88 22.5t33 61.5t-32.5 61.5t-88 22.5 t-88 -22.5t-32.5 -60.5z" />
<glyph unicode="&#xc6;" horiz-adv-x="1783" d="M25 0l376 1413h1299v-270h-619v-293h496v-268h-496v-312h619v-270h-897v238h-436l-60 -238h-282zM436 510h367l2 633h-205z" />
<glyph unicode="&#xc7;" horiz-adv-x="1112" d="M96 720q0 380 114 538.5t419 158.5q176 0 407 -55l-8 -225q-203 31 -337 30.5t-191.5 -36t-85 -136t-27.5 -342t56.5 -335t225.5 -93.5t359 29l6 -231q-193 -43 -389 -48v-51q131 -2 191.5 -39t60.5 -149.5t-59.5 -171t-167.5 -58.5q-88 0 -162 17l-29 6l8 160 q63 -2 99 -2q78 0 78 53q0 45 -78 45h-49v195q-254 25 -347.5 192.5t-93.5 547.5z" />
<glyph unicode="&#xc8;" horiz-adv-x="1134" d="M152 0v1393h901v-246h-619v-326h496v-241h-496v-334h619v-246h-901zM285 1690l84 245l516 -217l-68 -190z" />
<glyph unicode="&#xc9;" horiz-adv-x="1134" d="M152 0v1393h901v-246h-619v-326h496v-241h-496v-334h619v-246h-901zM315 1718l516 217l84 -245l-532 -162z" />
<glyph unicode="&#xca;" horiz-adv-x="1134" d="M152 0v1393h901v-246h-619v-326h496v-241h-496v-334h619v-246h-901zM215 1567l274 305h240l275 -305h-291l-101 114l-106 -114h-291z" />
<glyph unicode="&#xcb;" horiz-adv-x="1134" d="M152 0v1393h901v-246h-619v-326h496v-241h-496v-334h619v-246h-901zM252 1565v270h262v-270h-262zM690 1565v270h262v-270h-262z" />
<glyph unicode="&#xcc;" horiz-adv-x="585" d="M-49 1690l84 245l516 -217l-68 -190zM152 0v1393h282v-1393h-282z" />
<glyph unicode="&#xcd;" horiz-adv-x="585" d="M14 1718l516 217l84 -245l-532 -162zM152 0v1393h282v-1393h-282z" />
<glyph unicode="&#xce;" horiz-adv-x="585" d="M-102 1567l274 305h240l274 -305h-291l-100 114l-107 -114h-290zM152 0v1393h282v-1393h-282z" />
<glyph unicode="&#xcf;" horiz-adv-x="585" d="M-57 1565v270h262v-270h-262zM152 0v1393h282v-1393h-282zM381 1565v270h262v-270h-262z" />
<glyph unicode="&#xd0;" horiz-adv-x="1314" d="M51 567v271h111v575h465q180 0 296.5 -39t181 -128t89.5 -208.5t25 -309t-22.5 -314.5t-85 -224.5t-181.5 -144.5t-303 -45h-465v567h-111zM440 268h187q154 0 225 78q76 84 76 379q0 88 -3 139t-13.5 102.5t-31 81t-53.5 54.5q-63 43 -200 43h-187v-307h267v-271h-267 v-299z" />
<glyph unicode="&#xd1;" horiz-adv-x="1419" d="M152 0v1393h477l336 -1147h20v1147h283v-1393h-465l-348 1147h-21v-1147h-282zM305 1757q41 49 105.5 90t125 41t185.5 -47t147 -47q47 0 136 66l30 20l60 -199q-43 -49 -106.5 -89t-117 -40t-183.5 47.5t-157 47.5q-51 0 -137 -66l-28 -20z" />
<glyph unicode="&#xd2;" horiz-adv-x="1335" d="M90 690.5q0 368.5 130 5s-serif}.5 179t447.5 -179t130 -547.5t-130 -542t-447.5 -173.5t-447.5 173.5t-130 542zM334 1690l84 245l516 -217l-68 -190zM381 689q0 -253 60.5 -360.5t226.5 -107.5t226 107.5t60 360.5t-61.5 367.5t-225 114.5t-225 -114.5t-61.5 -367.5z " />
<glyph unicode="&#xd3;" horiz-adv-x="1335" d="M90 690.5q0 368.5 130 547.5t447.5 179t447.5 -179t130 -547.5t-130 -542t-447.5 -173.5t-447.5 173.5t-130 542zM342 1718l516 217l84 -245l-532 -162zM381 689q0 -253 60.5 -360.5t226.5 -107.5t226 107.5t60 360.5t-61.5 367.5t-225 114.5t-225 -114.5t-61.5 -367.5z " />
<glyph unicode="&#xd4;" horiz-adv-x="1335" d="M90 690.5q0 368.5 130 547.5t447.5 179t447.5 -179t130 -547.5t-130 -542t-447.5 -173.5t-447.5 173.5t-130 542zM276 1567l275 305h240l274 -305h-291l-100 114l-107 -114h-291zM381 689q0 -253 60.5 -360.5t226.5 -107.5t226 107.5t60 360.5t-61.5 367.5t-225 114.5 t-225 -114.5t-61.5 -367.5z" />
<glyph unicode="&#xd5;" horiz-adv-x="1335" d="M90 690.5q0 368.5 130 547.5t447.5 179t447.5 -179t130 -547.5t-130 -542t-447.5 -173.5t-447.5 173.5t-130 542zM272 1757q41 49 105.5 90t125 41t185.5 -47t148 -47q47 0 135 66l30 20l60 -199q-43 -49 -106.5 -89t-117 -40t-183.5 47.5t-156 47.5q-51 0 -138 -66 l-28 -20zM381 689q0 -253 60.5 -360.5t226.5 -107.5t226 107.5t60 360.5t-61.5 367.5t-225 114.5t-225 -114.5t-61.5 -367.5z" />
<glyph unicode="&#xd6;" horiz-adv-x="1335" d="M90 690.5q0 368.5 130 547.5t447.5 179t447.5 -179t130 -547.5t-130 -542t-447.5 -173.5t-447.5 173.5t-130 542zM317 1565v270h263v-270h-263zM381 689q0 -253 60.5 -360.5t226.5 -107.5t226 107.5t60 360.5t-61.5 367.5t-225 114.5t-225 -114.5t-61.5 -367.5zM756 1565 v270h262v-270h-262z" />
<glyph unicode="&#xd7;" d="M115 227l291 285l-289 283l174 174l282 -289l287 293l172 -174l-293 -287l293 -285l-174 -174l-285 291l-284 -289z" />
<glyph unicode="&#xd8;" horiz-adv-x="1335" d="M90 688q0 371 130 550t448 179q119 0 206 -24l125 266l205 -88l-133 -287q174 -168 174 -596q0 -367 -130 -540t-447 -173q-100 0 -197 21l-119 -256l-200 100l118 254q-180 160 -180 594zM381 720q0 -222 31 -323l354 760q-49 14 -98 14q-164 0 -225.5 -114.5 t-61.5 -336.5zM580 229q35 -8 88 -8q166 0 226 107.5t60 324.5t-28 320z" />
<glyph unicode="&#xd9;" horiz-adv-x="1339" d="M139 471v922h283v-928q0 -244 248 -244t248 244v928h282v-922q0 -256 -132 -376t-398.5 -120t-398.5 120t-132 376zM358 1690l84 245l516 -217l-67 -190z" />
<glyph unicode="&#xda;" horiz-adv-x="1339" d="M139 471v922h283v-928q0 -244 248 -244t248 244v928h282v-922q0 -256 -132 -376t-398.5 -120t-398.5 120t-132 376zM358 1718l516 217l84 -245l-532 -162z" />
<glyph unicode="&#xdb;" horiz-adv-x="1339" d="M139 471v922h283v-928q0 -244 248 -244t248 244v928h282v-922q0 -256 -132 -376t-398.5 -120t-398.5 120t-132 376zM276 1567l275 305h240l274 -305h-291l-100 114l-107 -114h-291z" />
<glyph unicode="&#xdc;" horiz-adv-x="1339" d="M139 471v922h283v-928q0 -244 248 -244t248 244v928h282v-922q0 -256 -132 -376t-398.5 -120t-398.5 120t-132 376zM319 1565v270h263v-270h-263zM758 1565v270h262v-270h-262z" />
<glyph unicode="&#xdd;" horiz-adv-x="1140" d="M0 1393h313l256 -555l256 555h314l-426 -830v-563h-283v563zM272 1718l516 217l84 -245l-532 -162z" />
<glyph unicode="&#xde;" horiz-adv-x="1220" d="M152 0v1413h282v-201h230q500 0 499 -489q0 -248 -127.5 -384t-371.5 -136h-230v-203h-282zM434 477h228q104 0 159.5 64.5t55.5 181.5q0 219 -215 219h-228v-465z" />
<glyph unicode="&#xdf;" horiz-adv-x="1251" d="M127 0v1069q0 209 109.5 299t355.5 90t362.5 -75.5t116.5 -245.5q0 -111 -44 -162t-134 -91t-112.5 -58.5t-22.5 -47t32.5 -53.5t169 -87.5t190.5 -122.5t54 -179q0 -207 -93 -284t-320 -77q-111 0 -267 37l-49 11l8 219q199 -25 275 -25q164 0 164 78q0 47 -31 71.5 t-166 82t-192.5 126t-57.5 173t37 162t127 94t119.5 59t29.5 65.5t-40.5 66t-150.5 23t-153 -36t-43 -118v-1063h-274z" />
<glyph unicode="&#xe0;" horiz-adv-x="1046" d="M59 311q0 164 88.5 232.5t270.5 81.5l219 16v64q0 63 -28.5 86.5t-92.5 23.5l-385 -16l-8 190q219 59 416.5 59.5t284.5 -81.5t87 -262v-426q4 -49 16.5 -69t51.5 -28l-8 -207q-104 0 -167 14.5t-126 57.5q-147 -72 -301 -72q-317 0 -318 336zM211 1307l82 235l516 -209 l-61 -178zM336 311.5q0 -112.5 100 -112.5q78 0 170 24l31 8v220l-186 -17q-115 -10 -115 -122.5z" />
<glyph unicode="&#xe1;" horiz-adv-x="1046" d="M59 311q0 164 88.5 232.5t270.5 81.5l219 16v64q0 63 -28.5 86.5t-92.5 23.5l-385 -16l-8 190q219 59 416.5 59.5t284.5 -81.5t87 -262v-426q4 -49 16.5 -69t51.5 -28l-8 -207q-104 0 -167 14.5t-126 57.5q-147 -72 -301 -72q-317 0 -318 336zM197 1333l516 209l82 -235 l-537 -152zM336 311.5q0 -112.5 100 -112.5q78 0 170 24l31 8v220l-186 -17q-115 -10 -115 -122.5z" />
<glyph unicode="&#xe2;" horiz-adv-x="1046" d="M59 311q0 164 88.5 232.5t270.5 81.5l219 16v64q0 63 -28.5 86.5t-92.5 23.5l-385 -16l-8 190q219 59 416.5 59.5t284.5 -81.5t87 -262v-426q4 -49 16.5 -69t51.5 -28l-8 -207q-104 0 -167 14.5t-126 57.5q-147 -72 -301 -72q-317 0 -318 336zM170 1188l258 309h172 l262 -309h-252l-94 137l-94 -137h-252zM336 311.5q0 -112.5 100 -112.5q78 0 170 24l31 8v220l-186 -17q-115 -10 -115 -122.5z" />
<glyph unicode="&#xe3;" horiz-adv-x="1046" d="M59 311q0 164 88.5 232.5t270.5 81.5l219 16v64q0 63 -28.5 86.5t-92.5 23.5l-385 -16l-8 190q219 59 416.5 59.5t284.5 -81.5t87 -262v-426q4 -49 16.5 -69t51.5 -28l-8 -207q-104 0 -167 14.5t-126 57.5q-147 -72 -301 -72q-317 0 -318 336zM111 1362q41 47 103 85 t108.5 38t141.5 -37t120 -37q49 0 135 51l29 19l59 -156q-12 -14 -32.5 -35.5t-78 -56.5t-103.5 -35t-140.5 37t-120.5 37q-59 0 -135 -47l-27 -17zM336 311.5q0 -112.5 100 -112.5q78 0 170 24l31 8v220l-186 -17q-115 -10 -115 -122.5z" />
<glyph unicode="&#xe4;" horiz-adv-x="1046" d="M59 311q0 164 88.5 232.5t270.5 81.5l219 16v64q0 63 -28.5 86.5t-92.5 23.5l-385 -16l-8 190q219 59 416.5 59.5t284.5 -81.5t87 -262v-426q4 -49 16.5 -69t51.5 -28l-8 -207q-104 0 -167 14.5t-126 57.5q-147 -72 -301 -72q-317 0 -318 336zM133 1221v270h262v-270 h-262zM336 311.5q0 -112.5 100 -112.5q78 0 170 24l31 8v220l-186 -17q-115 -10 -115 -122.5zM575 1221v270h263v-270h-263z" />
<glyph unicode="&#xe5;" horiz-adv-x="1046" d="M59 311q0 164 88.5 232.5t270.5 81.5l219 16v64q0 63 -28.5 86.5t-92.5 23.5l-385 -16l-8 190q219 59 416.5 59.5t284.5 -81.5t87 -262v-426q4 -49 16.5 -69t51.5 -28l-8 -207q-104 0 -167 14.5t-126 57.5q-147 -72 -301 -72q-317 0 -318 336zM303 1305.5 q0 101.5 68.5 171t170 69.5t171 -69.5t69.5 -171t-69.5 -170t-171 -68.5t-170 68.5t-68.5 170zM336 311.5q0 -112.5 100 -112.5q78 0 170 24l31 8v220l-186 -17q-115 -10 -115 -122.5zM451 1307q0 -41 26.5 -68t67.5 -27t66.5 27t25.5 68t-25.5 66.5t-66.5 25.5t-67.5 -25.5 t-26.5 -66.5z" />
<glyph unicode="&#xe6;" horiz-adv-x="1605" d="M59 314.5q0 160.5 89.5 231t267.5 81.5l221 14v51q0 41 -28.5 66.5t-84.5 25.5q-147 0 -321 -16l-66 -6l-8 239q272 45 435 45.5t251 -75.5q106 76 272 76q446 0 447 -461l-21 -193h-602q2 -88 49.5 -127t139.5 -39q139 0 340 15l57 4l4 -213q-236 -57 -435.5 -57.5 t-303.5 98.5l-47 -23q-172 -76 -336 -76t-242 89.5t-78 250zM336 319q0 -109 84 -108q82 0 182 22l35 9l-2 190l-184 -8q-115 -6 -115 -105zM911 604h353q0 109 -40 154t-137.5 45t-136.5 -47.5t-39 -151.5z" />
<glyph unicode="&#xe7;" horiz-adv-x="913" d="M78 529.5q0 267.5 102.5 393.5t329.5 126q106 0 272 -33l56 -12l-9 -218q-162 16 -239 17q-141 0 -187.5 -60.5t-46.5 -228.5t46.5 -230.5t189.5 -62.5l237 17l9 -220q-199 -39 -316 -43v-51q131 -2 191.5 -39t60.5 -149.5t-59.5 -171t-167.5 -58.5q-88 0 -162 17l-29 6 l9 160q63 -2 98 -2q78 0 78 53q0 45 -78 45h-49v197q-178 23 -257 151.5t-79 396z" />
<glyph unicode="&#xe8;" horiz-adv-x="1044" d="M76 498q0 551 452 551q446 0 447 -463l-21 -191h-602q2 -94 50.5 -136t138.5 -42q190 0 340 12l57 7l4 -203q-236 -57 -426 -58q-231 0 -335.5 123t-104.5 400zM225 1307l82 235l516 -209l-61 -178zM350 604h355q0 123 -39 171t-136.5 48t-137.5 -50t-42 -169z" />
<glyph unicode="&#xe9;" horiz-adv-x="1044" d="M76 498q0 551 452 551q446 0 447 -463l-21 -191h-602q2 -94 50.5 -136t138.5 -42q190 0 340 12l57 7l4 -203q-236 -57 -426 -58q-231 0 -335.5 123t-104.5 400zM215 1333l516 209l82 -235l-537 -152zM350 604h355q0 123 -39 171t-136.5 48t-137.5 -50t-42 -169z" />
<glyph unicode="&#xea;" horiz-adv-x="1044" d="M76 498q0 551 452 551q446 0 447 -463l-21 -191h-602q2 -94 50.5 -136t138.5 -42q190 0 340 12l57 7l4 -203q-236 -57 -426 -58q-231 0 -335.5 123t-104.5 400zM182 1188l258 309h172l262 -309h-251l-95 137l-94 -137h-252zM350 604h355q0 123 -39 171t-136.5 48 t-137.5 -50t-42 -169z" />
<glyph unicode="&#xeb;" horiz-adv-x="1044" d="M76 498q0 551 452 551q446 0 447 -463l-21 -191h-602q2 -94 50.5 -136t138.5 -42q190 0 340 12l57 7l4 -203q-236 -57 -426 -58q-231 0 -335.5 123t-104.5 400zM172 1221v270h262v-270h-262zM350 604h355q0 123 -39 171t-136.5 48t-137.5 -50t-42 -169zM614 1221v270h263 v-270h-263z" />
<glyph unicode="&#xec;" horiz-adv-x="528" d="M-121 1307l82 235l516 -209l-61 -178zM127 0v1024h274v-1024h-274z" />
<glyph unicode="&#xed;" horiz-adv-x="528" d="M63 1333l517 209l82 -235l-537 -152zM127 0v1024h274v-1024h-274z" />
<glyph unicode="&#xee;" horiz-adv-x="528" d="M-92 1188l258 309h172l262 -309h-252l-94 137l-94 -137h-252zM127 0v1024h274v-1024h-274z" />
<glyph unicode="&#xef;" horiz-adv-x="528" d="M-98 1221v270h262v-270h-262zM127 0v1024h274v-1024h-274zM344 1221v270h262v-270h-262z" />
<glyph unicode="&#xf0;" horiz-adv-x="1161" d="M78 442q0 213 111.5 334t334.5 121q127 0 232 -37l35 -12q-10 96 -51.5 164.5t-131.5 120.5l-264 -177l-111 156l156 105q-94 25 -221 49l37 192q248 -18 428 -80l196 131l111 -155l-111 -74q252 -180 252 -562t-122.5 -559t-399.5 -177q-481 0 -481 460zM369 442 q0 -215 190 -215q115 0 173.5 90.5t58.5 292.5q-103 45 -250 45q-84 0 -128 -62.5t-44 -150.5z" />
<glyph unicode="&#xf1;" horiz-adv-x="1132" d="M127 0v1024h272v-57l39 20q37 20 101.5 41t115.5 21q205 0 283 -121t78 -373v-555h-275v547q0 131 -30.5 193.5t-124.5 62.5t-185 -37v-766h-274zM227 1362q41 47 103.5 85t108.5 38t141.5 -37t119.5 -37q49 0 136 51l28 19l60 -156q-12 -14 -33 -35.5t-78 -56.5 t-103 -35t-140.5 37t-123.5 37q-57 0 -133 -47l-26 -17z" />
<glyph unicode="&#xf2;" horiz-adv-x="1089" d="M74 514q0 254 108.5 394.5t362.5 140.5t362.5 -140.5t108.5 -394.5q0 -539 -471 -539t-471 539zM252 1307l82 235l516 -209l-62 -178zM352 514q0 -158 42 -231.5t150.5 -73.5t150.5 73.5t42 231.5t-42 229.5t-150.5 71.5t-150.5 -71.5t-42 -229.5z" />
<glyph unicode="&#xf3;" horiz-adv-x="1089" d="M74 514q0 254 108.5 394.5t362.5 140.5t362.5 -140.5t108.5 -394.5q0 -539 -471 -539t-471 539zM238 1333l516 209l82 -235l-537 -152zM352 514q0 -158 42 -231.5t150.5 -73.5t150.5 73.5t42 231.5t-42 229.5t-150.5 71.5t-150.5 -71.5t-42 -229.5z" />
<glyph unicode="&#xf4;" horiz-adv-x="1089" d="M74 514q0 254 108.5 394.5t362.5 140.5t362.5 -140.5t108.5 -394.5q0 -539 -471 -539t-471 539zM186 1188l258 309h172l263 -309h-252l-95 137l-94 -137h-252zM352 514q0 -158 42 -231.5t150.5 -73.5t150.5 73.5t42 231.5t-42 229.5t-150.5 71.5t-150.5 -71.5t-42 -229.5 z" />
<glyph unicode="&#xf5;" horiz-adv-x="1089" d="M74 514q0 254 108.5 394.5t362.5 140.5t362.5 -140.5t108.5 -394.5q0 -539 -471 -539t-471 539zM186 1362q41 47 103.5 85t108.5 38t141.5 -37t119.5 -37q49 0 136 51l28 19l60 -156q-12 -14 -33 -35.5t-78 -56.5t-103 -35t-140.5 37t-122.5 37q-57 0 -134 -47l-26 -17z M352 514q0 -158 42 -231.5t150.5 -73.5t150.5 73.5t42 231.5t-42 229.5t-150.5 71.5t-150.5 -71.5t-42 -229.5z" />
<glyph unicode="&#xf6;" horiz-adv-x="1089" d="M74 514q0 254 108.5 394.5t362.5 140.5t362.5 -140.5t108.5 -394.5q0 -539 -471 -539t-471 539zM190 1221v270h263v-270h-263zM352 514q0 -158 42 -231.5t150.5 -73.5t150.5 73.5t42 231.5t-42 229.5t-150.5 71.5t-150.5 -71.5t-42 -229.5zM633 1221v270h262v-270h-262z " />
<glyph unicode="&#xf7;" d="M102 391v246h942v-246h-942zM436 35v270h271v-270h-271zM436 721v270h271v-270h-271z" />
<glyph unicode="&#xf8;" horiz-adv-x="1089" d="M74 514q0 254 108.5 394.5t362.5 140.5q57 0 114 -11l82 205l166 -61l-84 -201q193 -121 193 -467q0 -539 -471 -539q-70 0 -129 13l-84 -209l-164 61l88 211q-182 123 -182 463zM352 528.5q0 -143.5 25 -209.5l194 494l-26 2q-109 0 -151 -71.5t-42 -215zM504 211 q12 -2 41 -2q109 0 150.5 73.5t41.5 219t-28 215.5z" />
<glyph unicode="&#xf9;" horiz-adv-x="1132" d="M117 487v537h274v-541q0 -152 24.5 -207t119.5 -55q90 0 170 29l26 8v766h275v-1024h-273v57q-147 -82 -256 -82q-213 0 -286.5 118t-73.5 394zM201 1307l82 235l516 -209l-62 -178z" />
<glyph unicode="&#xfa;" horiz-adv-x="1132" d="M117 487v537h274v-541q0 -152 24.5 -207t123 -55t192.5 37v766h275v-1024h-273v57l-41 -20q-39 -20 -102.5 -41t-112.5 -21q-213 0 -286.5 118t-73.5 394zM266 1333l516 209l82 -235l-536 -152z" />
<glyph unicode="&#xfb;" horiz-adv-x="1132" d="M117 487v537h274v-541q0 -152 24.5 -207t123 -55t192.5 37v766h275v-1024h-273v57l-41 -20q-39 -20 -102.5 -41t-112.5 -21q-213 0 -286.5 118t-73.5 394zM168 1188l258 309h172l262 -309h-252l-94 137l-94 -137h-252z" />
<glyph unicode="&#xfc;" horiz-adv-x="1132" d="M117 487v537h274v-541q0 -152 24.5 -207t123 -55t192.5 37v766h275v-1024h-273v57l-41 -20q-39 -20 -102.5 -41t-112.5 -21q-213 0 -286.5 118t-73.5 394zM217 1221v270h262v-270h-262zM659 1221v270h263v-270h-263z" />
<glyph unicode="&#xfd;" horiz-adv-x="1024" d="M33 1024h270l186 -791h48l186 791h270l-360 -1454h-268l112 430h-192zM250 1333l516 209l82 -235l-537 -152z" />
<glyph unicode="&#xfe;" horiz-adv-x="1114" d="M127 -430v1864h274v-441q132 56 222 56q215 0 314 -118t99 -421t-108.5 -419t-356.5 -116q-68 0 -145 13l-25 4v-422h-274zM401 225q93 -12 150 -12q119 0 163 69.5t44 239.5q0 281 -172 281q-82 0 -156 -21l-29 -6v-551z" />
<glyph unicode="&#xff;" horiz-adv-x="1024" d="M33 1024h270l186 -791h48l186 791h270l-360 -1454h-268l112 430h-192zM162 1221v270h262v-270h-262zM604 1221v270h262v-270h-262z" />
<glyph unicode="&#x152;" horiz-adv-x="1847" d="M94 712.5q0 395.5 120 560.5t413 165q88 0 239 -25h897v-270h-618v-293h495v-268h-495v-312h618v-270h-893q-156 -25 -243 -25q-309 0 -421 171t-112 566.5zM385 665.5q0 -227.5 56.5 -319.5t234.5 -92q51 0 190 12v881q-143 12 -227 12t-142.5 -36t-85 -133 t-26.5 -324.5z" />
<glyph unicode="&#x153;" horiz-adv-x="1708" d="M74 512q0 254 108.5 394.5t362.5 140.5q119 0 198.5 -38t133.5 -128q53 92 129.5 129t183.5 37q446 0 446 -461l-20 -193h-602q2 -88 49 -127t139 -39q139 0 340 15l57 4l5 -213q-236 -57 -442 -57.5t-298 139.5q-98 -139 -335.5 -139.5t-346 141t-108.5 395.5zM352 512 q0 -150 42 -219.5t150.5 -69.5t150.5 69.5t42 219.5t-42 218.5t-150.5 68.5t-150.5 -68.5t-42 -218.5zM1012 604h354q0 109 -40 154t-136 45t-137 -48.5t-41 -150.5z" />
<glyph unicode="&#x178;" horiz-adv-x="1140" d="M0 1393h313l256 -555l256 555h314l-426 -830v-563h-283v563zM215 1565v270h262v-270h-262zM653 1565v270h262v-270h-262z" />
<glyph unicode="&#x2c6;" horiz-adv-x="548" d="M-49 1188l258 309h172l262 -309h-252l-94 137l-94 -137h-252z" />
<glyph unicode="&#x2dc;" horiz-adv-x="548" d="M-45 1362q41 47 103.5 85t108.5 38t141 -37t120 -37q49 0 135 51l29 19l59 -156q-12 -14 -32.5 -35.5t-78 -56.5t-103.5 -35t-140 37t-121 37q-59 0 -135 -47l-27 -17z" />
<glyph unicode="&#x2000;" horiz-adv-x="967" />
<glyph unicode="&#x2001;" horiz-adv-x="1935" />
<glyph unicode="&#x2002;" horiz-adv-x="967" />
<glyph unicode="&#x2003;" horiz-adv-x="1935" />
<glyph unicode="&#x2004;" horiz-adv-x="645" />
<glyph unicode="&#x2005;" horiz-adv-x="483" />
<glyph unicode="&#x2006;" horiz-adv-x="322" />
<glyph unicode="&#x2007;" horiz-adv-x="322" />
<glyph unicode="&#x2008;" horiz-adv-x="241" />
<glyph unicode="&#x2009;" horiz-adv-x="387" />
<glyph unicode="&#x200a;" horiz-adv-x="107" />
<glyph unicode="&#x2010;" horiz-adv-x="835" d="M115 420v250h606v-250h-606z" />
<glyph unicode="&#x2011;" horiz-adv-x="835" d="M115 420v250h606v-250h-606z" />
<glyph unicode="&#x2012;" horiz-adv-x="835" d="M115 420v250h606v-250h-606z" />
<glyph unicode="&#x2013;" horiz-adv-x="1257" d="M117 428v234h1024v-234h-1024z" />
<glyph unicode="&#x2014;" horiz-adv-x="2281" d="M117 428v234h2048v-234h-2048z" />
<glyph unicode="&#x2018;" horiz-adv-x="530" d="M72 885l174 506h211l-99 -506h-286z" />
<glyph unicode="&#x2019;" horiz-adv-x="520" d="M84 887l96 506h289l-174 -506h-211z" />
<glyph unicode="&#x201a;" horiz-adv-x="524" d="M47 -240l96 506h289l-174 -506h-211z" />
<glyph unicode="&#x201c;" horiz-adv-x="907" d="M72 885l174 506h211l-99 -506h-286zM449 885l174 506h211l-99 -506h-286z" />
<glyph unicode="&#x201d;" horiz-adv-x="899" d="M84 889l96 506h289l-176 -506h-209zM461 889l96 506h289l-174 -506h-211z" />
<glyph unicode="&#x201e;" horiz-adv-x="862" d="M-14 -266l174 506h211l-99 -506h-286zM375 -266l174 506h211l-98 -506h-287z" />
<glyph unicode="&#x2022;" horiz-adv-x="921" d="M205 205v573h512v-573h-512z" />
<glyph unicode="&#x2026;" horiz-adv-x="1568" d="M115 0v340h295v-340h-295zM637 0v340h295v-340h-295zM1159 0v340h295v-340h-295z" />
<glyph unicode="&#x202f;" horiz-adv-x="387" />
<glyph unicode="&#x2039;" horiz-adv-x="651" d="M82 397v197l457 336v-277l-224 -153l224 -176v-277z" />
<glyph unicode="&#x203a;" horiz-adv-x="651" d="M111 68v276l223 176l-223 154v276l456 -336v-196z" />
<glyph unicode="&#x205f;" horiz-adv-x="483" />
<glyph unicode="&#x20ac;" d="M53 383v209h113v135h-113v209h127q31 240 144.5 340t357.5 100q158 0 395 -53l-8 -219q-180 29 -322.5 29t-200 -41t-81.5 -156h481v-209h-497v-135h497v-209h-473q25 -92 82 -128t184 -36t330 27l6 -223q-207 -47 -416.5 -47.5t-324.5 98t-150 309.5h-131z" />
<glyph unicode="&#x2122;" horiz-adv-x="1351" d="M164 1157v162h409v-162h-84v-477h-180v477h-145zM625 678v641h211l84 -324l92 324h209v-641h-168v356l-70 -313h-113l-77 313v-356h-168z" />
<glyph unicode="&#xe000;" horiz-adv-x="1024" d="M0 0v1024h1024v-1024h-1024z" />
<hke</font>
</defs>
</svg>
